<svg width="24" height="24" xmlns="http://www.w3.org/2000/svg">

 <g>
  <title>background</title>
  <rect fill="none" id="canvas_background" height="402" width="582" y="-1" x="-1"/>
 </g>
 <g>
  <title>Layer 1</title>
  <path id="svg_1" fill="none" d="m0,0l24,0l0,24l-24,0l0,-24z"/>
  <path fill="#364349" id="svg_2" d="m12,4.5c-5,0 -9.27,3.11 -11,7.5c1.73,4.39 6,7.5 11,7.5s9.27,-3.11 11,-7.5c-1.73,-4.39 -6,-7.5 -11,-7.5zm0,12.5c-2.76,0 -5,-2.24 -5,-5s2.24,-5 5,-5s5,2.24 5,5s-2.24,5 -5,5zm0,-8c-1.66,0 -3,1.34 -3,3s1.34,3 3,3s3,-1.34 3,-3s-1.34,-3 -3,-3z"/>
 </g>
</svg>