<svg width="24" height="24" xmlns="http://www.w3.org/2000/svg">

 <g>
  <title>background</title>
  <rect fill="none" id="canvas_background" height="402" width="582" y="-1" x="-1"/>
 </g>
 <g>
  <title>Layer 1</title>
  <path id="svg_1" fill="none" d="m0,0l24,0l0,24l-24,0l0,-24zm0,24l24,0l0,24l-24,0l0,-24zm0,0l24,0l0,24l-24,0l0,-24zm0,0l24,0l0,24l-24,0l0,-24z"/>
  <path fill="#364349" id="svg_2" d="m12,7c2.76,0 5,2.24 5,5c0,0.65 -0.13,1.26 -0.36,1.83l2.92,2.92c1.51,-1.26 2.7,-2.89 3.43,-4.75c-1.73,-4.39 -6,-7.5 -11,-7.5c-1.4,0 -2.74,0.25 -3.98,0.7l2.16,2.16c0.57,-0.23 1.18,-0.36 1.83,-0.36zm-10,-2.73l2.28,2.28l0.46,0.46c-1.66,1.29 -2.96,3.01 -3.74,4.99c1.73,4.39 6,7.5 11,7.5c1.55,0 3.03,-0.3 4.38,-0.84l0.42,0.42l2.93,2.92l1.27,-1.27l-17.73,-17.73l-1.27,1.27zm5.53,5.53l1.55,1.55c-0.05,0.21 -0.08,0.43 -0.08,0.65c0,1.66 1.34,3 3,3c0.22,0 0.44,-0.03 0.65,-0.08l1.55,1.55c-0.67,0.33 -1.41,0.53 -2.2,0.53c-2.76,0 -5,-2.24 -5,-5c0,-0.79 0.2,-1.53 0.53,-2.2zm4.31,-0.78l3.15,3.15l0.02,-0.16c0,-1.66 -1.34,-3 -3,-3l-0.17,0.01z"/>
 </g>
</svg>