<svg width="24" height="24" xmlns="http://www.w3.org/2000/svg">

 <g>
  <title>background</title>
  <rect fill="none" id="canvas_background" height="402" width="582" y="-1" x="-1"/>
 </g>
 <g>
  <title>Layer 1</title>
  <path id="svg_1" d="m0,0l24,0l0,24l-24,0l0,-24z" fill="none"/>
  <path stroke="#000000" stroke-opacity="0" fill="#364349" id="svg_2" d="m12,6.5c3.79,0 7.17,2.13 8.82,5.5c-1.65,3.37 -5.02,5.5 -8.82,5.5s-7.17,-2.13 -8.82,-5.5c1.65,-3.37 5.03,-5.5 8.82,-5.5m0,-2c-5,0 -9.27,3.11 -11,7.5c1.73,4.39 6,7.5 11,7.5s9.27,-3.11 11,-7.5c-1.73,-4.39 -6,-7.5 -11,-7.5zm0,5c1.38,0 2.5,1.12 2.5,2.5s-1.12,2.5 -2.5,2.5s-2.5,-1.12 -2.5,-2.5s1.12,-2.5 2.5,-2.5m0,-2c-2.48,0 -4.5,2.02 -4.5,4.5s2.02,4.5 4.5,4.5s4.5,-2.02 4.5,-4.5s-2.02,-4.5 -4.5,-4.5z"/>
 </g>
</svg>