<svg width="24" height="24" xmlns="http://www.w3.org/2000/svg">

 <g>
  <title>background</title>
  <rect fill="none" id="canvas_background" height="402" width="582" y="-1" x="-1"/>
 </g>
 <g>
  <title>Layer 1</title>
  <path id="svg_1" d="m0,0l24,0l0,24l-24,0l0,-24zm0,0l24,0l0,24l-24,0l0,-24zm0,0l24,0l0,24l-24,0l0,-24zm0,0l24,0l0,24l-24,0l0,-24z" fill="none"/>
  <path fill="#364349" id="svg_2" d="m12,6.5c2.76,0 5,2.24 5,5c0,0.51 -0.1,1 -0.24,1.46l3.06,3.06c1.39,-1.23 2.49,-2.77 3.18,-4.53c-1.73,-4.38 -6,-7.49 -11,-7.49c-1.27,0 -2.49,0.2 -3.64,0.57l2.17,2.17c0.47,-0.14 0.96,-0.24 1.47,-0.24zm-9.29,-3.34c-0.39,0.39 -0.39,1.02 0,1.41l1.97,1.97c-1.62,1.29 -2.91,2.99 -3.68,4.96c1.73,4.39 6,7.5 11,7.5c1.52,0 2.97,-0.3 4.31,-0.82l2.72,2.72c0.39,0.39 1.02,0.39 1.41,0c0.39,-0.39 0.39,-1.02 0,-1.41l-16.31,-16.33c-0.39,-0.39 -1.03,-0.39 -1.42,0zm9.29,13.34c-2.76,0 -5,-2.24 -5,-5c0,-0.77 0.18,-1.5 0.49,-2.14l1.57,1.57c-0.03,0.18 -0.06,0.37 -0.06,0.57c0,1.66 1.34,3 3,3c0.2,0 0.38,-0.03 0.57,-0.07l1.57,1.57c-0.65,0.32 -1.37,0.5 -2.14,0.5zm2.97,-5.33c-0.15,-1.4 -1.25,-2.49 -2.64,-2.64l2.64,2.64z"/>
 </g>
</svg>